<svg xmlns="http://www.w3.org/2000/svg" viewBox="0 0 64 64" role="img" aria-label="כתבי יונתן יהודה ז״ל">
  <defs>
    <linearGradient id="p" x1="0" y1="0" x2="0" y2="1">
      <stop offset="0" stop-color="#FDFBF6"/><stop offset="1" stop-color="#F2EBDC"/>
    </linearGradient>
    <linearGradient id="f" x1="0" y1="0" x2="0" y2="1">
      <stop offset="0" stop-color="#D99A2B"/>
      <stop offset=".55" stop-color="#EFB84A"/>
      <stop offset="1" stop-color="#F7D77E"/>
    </linearGradient>
  </defs>
  <rect width="64" height="64" rx="14" fill="url(#p)"/>
  <rect x="1" y="1" width="62" height="62" rx="13.2" fill="none" stroke="#E0D4BB" stroke-width="1.4"/>
  <!-- דף -->
  <path d="M20 24h24v22a2 2 0 0 1-2 2H22a2 2 0 0 1-2-2V24z" fill="#fff" stroke="#D8C9A9" stroke-width="1.5" stroke-linejoin="round"/>
  <g stroke="#CDBB97" stroke-width="1.5" stroke-linecap="round">
    <path d="M25 31h14M25 36h14M25 41h9"/>
  </g>
  <!-- להבת נר -->
  <path d="M32 6.5c2.2 4.2 5.2 6.4 5.2 10 0 3.3-2.3 5.7-5.2 5.7s-5.2-2.4-5.2-5.7c0-3.6 3-5.8 5.2-10z" fill="url(#f)"/>
  <path d="M32 13.2c1 1.9 2.3 2.9 2.3 4.6 0 1.5-1 2.6-2.3 2.6s-2.3-1.1-2.3-2.6c0-1.7 1.3-2.7 2.3-4.6z" fill="#FFF6DF"/>
  <path d="M32 22.3v2.2" stroke="#C0A87C" stroke-width="1.4" stroke-linecap="round"/>
</svg>
